<?xml version="1.0"?>
<svg xmlns="http://www.w3.org/2000/svg" xmlns:xlink="http://www.w3.org/1999/xlink" xmlns:svgjs="http://svgjs.com/svgjs" version="1.1" width="512" height="512" x="0" y="0" viewBox="0 0 455.111 455.111" style="enable-background:new 0 0 512 512" xml:space="preserve" class=""><g>
<path xmlns="http://www.w3.org/2000/svg" style="" d="M406.756,455.111h-358.4C21.333,455.111,0,433.778,0,406.756v-358.4C0,21.333,21.333,0,48.356,0  h358.4c27.022,0,48.356,21.333,48.356,48.356v358.4C455.111,433.778,433.778,455.111,406.756,455.111z" fill="#e2dcde" data-original="#5ca4da" class=""/>
<path xmlns="http://www.w3.org/2000/svg" style="" d="M366.933,0c-17.067,73.956-61.156,153.6-129.422,221.867C164.978,294.4,78.222,339.911,0,354.133  V48.356C0,21.333,21.333,0,48.356,0H366.933z" fill="#f1e4e8" data-original="#6dafe0" class=""/>
<path xmlns="http://www.w3.org/2000/svg" style="" d="M233.244,312.889v-25.6H91.022c-9.956,0-18.489-8.533-18.489-18.489v-82.489  c0-9.956,8.533-18.489,18.489-18.489h142.222v-25.6c0-14.222,17.067-22.756,28.444-14.222l113.778,85.333  c9.956,7.111,9.956,21.333,0,28.444l-113.778,85.333C250.311,335.644,233.244,327.111,233.244,312.889z" fill="#b97375" data-original="#ffffff" class=""/>
<g xmlns="http://www.w3.org/2000/svg">
</g>
<g xmlns="http://www.w3.org/2000/svg">
</g>
<g xmlns="http://www.w3.org/2000/svg">
</g>
<g xmlns="http://www.w3.org/2000/svg">
</g>
<g xmlns="http://www.w3.org/2000/svg">
</g>
<g xmlns="http://www.w3.org/2000/svg">
</g>
<g xmlns="http://www.w3.org/2000/svg">
</g>
<g xmlns="http://www.w3.org/2000/svg">
</g>
<g xmlns="http://www.w3.org/2000/svg">
</g>
<g xmlns="http://www.w3.org/2000/svg">
</g>
<g xmlns="http://www.w3.org/2000/svg">
</g>
<g xmlns="http://www.w3.org/2000/svg">
</g>
<g xmlns="http://www.w3.org/2000/svg">
</g>
<g xmlns="http://www.w3.org/2000/svg">
</g>
<g xmlns="http://www.w3.org/2000/svg">
</g>
</g></svg>
